<?xml version="1.0" encoding="utf-8"?>
<!-- Generator: Adobe Illustrator 16.0.0, SVG Export Plug-In . SVG Version: 6.00 Build 0)  -->
<!DOCTYPE svg PUBLIC "-//W3C//DTD SVG 1.1//EN" "http://www.w3.org/Graphics/SVG/1.1/DTD/svg11.dtd">
<svg version="1.1" xmlns="http://www.w3.org/2000/svg" xmlns:xlink="http://www.w3.org/1999/xlink" x="0px" y="0px"
	 width="813.062px" height="942.057px" viewBox="0 0 813.062 942.057" enable-background="new 0 0 813.062 942.057"
	 xml:space="preserve">
<g id="Layer_3">
</g>
<g id="bg">
	<rect x="97" y="91" fill="#F2F2F2" width="446" height="415"/>
	<rect x="97" y="515" fill="#F2F2F2" width="446" height="280"/>
	<text transform="matrix(1 0 0 1 128.2295 253.4434)"><tspan x="0" y="0" font-family="'MyriadPro-Regular'" font-size="48">Product &amp;</tspan><tspan x="15.337" y="57.6" font-family="'MyriadPro-Regular'" font-size="48">Supplier</tspan><tspan x="-3.431" y="115.199" font-family="'MyriadPro-Regular'" font-size="48">Marketing</tspan></text>
	<text transform="matrix(1 0 0 1 121.4863 617.4434)"><tspan x="0" y="0" font-family="'MyriadPro-Regular'" font-size="48">Platform &amp;</tspan><tspan x="32.279" y="57.6" font-family="'MyriadPro-Regular'" font-size="48">Partner</tspan><tspan x="3.313" y="115.199" font-family="'MyriadPro-Regular'" font-size="48">Marketing</tspan></text>
</g>
<g id="Layer_1">
	<rect x="543.5" y="80.5" fill="#FFFFFF" stroke="#000000" stroke-miterlimit="10" width="172" height="768"/>
	<linearGradient id="SVGID_1_" gradientUnits="userSpaceOnUse" x1="549.5" y1="130" x2="708.5" y2="130">
		<stop  offset="0" style="stop-color:#FCEE21"/>
		<stop  offset="1" style="stop-color:#D9E021"/>
	</linearGradient>
	<rect x="549.5" y="90.5" fill="url(#SVGID_1_)" stroke="#000000" stroke-miterlimit="10" width="159" height="79"/>
	<linearGradient id="SVGID_2_" gradientUnits="userSpaceOnUse" x1="384.5" y1="130" x2="543.5" y2="130">
		<stop  offset="0" style="stop-color:#FCEE21"/>
		<stop  offset="1" style="stop-color:#D9E021"/>
	</linearGradient>
	<rect x="384.5" y="90.5" opacity="0.2" fill="url(#SVGID_2_)" stroke="#000000" stroke-miterlimit="10" width="159" height="79"/>
	<rect x="549.5" y="183.5" fill="#39B54A" stroke="#000000" stroke-miterlimit="10" width="159" height="118"/>
	<rect x="384.5" y="183.5" opacity="0.2" fill="#39B54A" stroke="#000000" stroke-miterlimit="10" width="159" height="118"/>
	<rect x="549.5" y="315.5" fill="#29ABE2" stroke="#000000" stroke-miterlimit="10" width="159" height="82"/>
	<rect x="384.5" y="315.5" opacity="0.2" fill="#29ABE2" stroke="#000000" stroke-miterlimit="10" width="159" height="82"/>
	<rect x="549.5" y="411.5" fill="#F7931E" stroke="#000000" stroke-miterlimit="10" width="159" height="94"/>
	<rect x="384.5" y="411.5" opacity="0.2" fill="#F7931E" stroke="#000000" stroke-miterlimit="10" width="159" height="94"/>
	<rect x="549.5" y="169.5" fill="#FFFFFF" stroke="#000000" stroke-miterlimit="10" width="14" height="14"/>
	<rect x="549.5" y="301.5" fill="#FFFFFF" stroke="#000000" stroke-miterlimit="10" width="14" height="14"/>
	<rect x="549.5" y="397.5" fill="#FFFFFF" stroke="#000000" stroke-miterlimit="10" width="14" height="14"/>
	<linearGradient id="SVGID_3_" gradientUnits="userSpaceOnUse" x1="549.5" y1="538.5" x2="708.5" y2="538.5">
		<stop  offset="0" style="stop-color:#F15A24"/>
		<stop  offset="1" style="stop-color:#ED1C24"/>
	</linearGradient>
	<rect x="549.5" y="519.5" fill="url(#SVGID_3_)" stroke="#000000" stroke-miterlimit="10" width="159" height="38"/>
	<linearGradient id="SVGID_4_" gradientUnits="userSpaceOnUse" x1="384.5" y1="538.5" x2="543.5" y2="538.5">
		<stop  offset="0" style="stop-color:#F15A24"/>
		<stop  offset="1" style="stop-color:#ED1C24"/>
	</linearGradient>
	<rect x="384.5" y="519.5" opacity="0.2" fill="url(#SVGID_4_)" stroke="#000000" stroke-miterlimit="10" width="159" height="38"/>
	<rect x="549.5" y="505.5" fill="#FFFFFF" stroke="#000000" stroke-miterlimit="10" width="14" height="14"/>
	<linearGradient id="SVGID_5_" gradientUnits="userSpaceOnUse" x1="549.5" y1="604" x2="708.5" y2="604">
		<stop  offset="0" style="stop-color:#F15A24"/>
		<stop  offset="1" style="stop-color:#ED1C24"/>
	</linearGradient>
	<rect x="549.5" y="571.5" fill="url(#SVGID_5_)" stroke="#000000" stroke-miterlimit="10" width="159" height="65"/>
	<linearGradient id="SVGID_6_" gradientUnits="userSpaceOnUse" x1="384.5" y1="604" x2="543.5" y2="604">
		<stop  offset="0" style="stop-color:#F15A24"/>
		<stop  offset="1" style="stop-color:#ED1C24"/>
	</linearGradient>
	<rect x="384.5" y="571.5" opacity="0.2" fill="url(#SVGID_6_)" stroke="#000000" stroke-miterlimit="10" width="159" height="65"/>
	<rect x="549.5" y="557.5" fill="#FFFFFF" stroke="#000000" stroke-miterlimit="10" width="14" height="14"/>
	<linearGradient id="SVGID_7_" gradientUnits="userSpaceOnUse" x1="549.5" y1="683" x2="708.5" y2="683">
		<stop  offset="0" style="stop-color:#F15A24"/>
		<stop  offset="1" style="stop-color:#ED1C24"/>
	</linearGradient>
	<rect x="549.5" y="650.5" fill="url(#SVGID_7_)" stroke="#000000" stroke-miterlimit="10" width="159" height="65"/>
	<linearGradient id="SVGID_8_" gradientUnits="userSpaceOnUse" x1="384.5" y1="683" x2="543.5" y2="683">
		<stop  offset="0" style="stop-color:#F15A24"/>
		<stop  offset="1" style="stop-color:#ED1C24"/>
	</linearGradient>
	<rect x="384.5" y="650.5" opacity="0.2" fill="url(#SVGID_8_)" stroke="#000000" stroke-miterlimit="10" width="159" height="65"/>
	<rect x="549.5" y="636.5" fill="#FFFFFF" stroke="#000000" stroke-miterlimit="10" width="14" height="14"/>
	<linearGradient id="SVGID_9_" gradientUnits="userSpaceOnUse" x1="549.5" y1="762" x2="708.5" y2="762">
		<stop  offset="0" style="stop-color:#F15A24"/>
		<stop  offset="1" style="stop-color:#ED1C24"/>
	</linearGradient>
	<rect x="549.5" y="729.5" fill="url(#SVGID_9_)" stroke="#000000" stroke-miterlimit="10" width="159" height="65"/>
	<linearGradient id="SVGID_10_" gradientUnits="userSpaceOnUse" x1="384.5" y1="762" x2="543.5" y2="762">
		<stop  offset="0" style="stop-color:#F15A24"/>
		<stop  offset="1" style="stop-color:#ED1C24"/>
	</linearGradient>
	
		<rect x="384.5" y="729.5" opacity="0.2" fill="url(#SVGID_10_)" stroke="#000000" stroke-miterlimit="10" width="159" height="65"/>
	<rect x="549.5" y="715.5" fill="#FFFFFF" stroke="#000000" stroke-miterlimit="10" width="14" height="14"/>
	<rect x="549.5" y="808.5" fill="#666666" stroke="#000000" stroke-miterlimit="10" width="159" height="27"/>
	<rect x="549.5" y="794.5" fill="#FFFFFF" stroke="#000000" stroke-miterlimit="10" width="14" height="14"/>
	<linearGradient id="SVGID_11_" gradientUnits="userSpaceOnUse" x1="549.5" y1="201" x2="629.5" y2="201">
		<stop  offset="0" style="stop-color:#8CC63F"/>
		<stop  offset="1" style="stop-color:#39B54A"/>
	</linearGradient>
	<rect x="549.5" y="183.5" fill="url(#SVGID_11_)" stroke="#000000" stroke-miterlimit="10" width="80" height="35"/>
	<linearGradient id="SVGID_12_" gradientUnits="userSpaceOnUse" x1="549.5" y1="333" x2="629.5" y2="333">
		<stop  offset="0" style="stop-color:#29ABE2"/>
		<stop  offset="1" style="stop-color:#0071BC"/>
	</linearGradient>
	<rect x="549.5" y="315.5" fill="url(#SVGID_12_)" stroke="#000000" stroke-miterlimit="10" width="80" height="35"/>
	<linearGradient id="SVGID_13_" gradientUnits="userSpaceOnUse" x1="629.5" y1="201" x2="708.5" y2="201">
		<stop  offset="0" style="stop-color:#8CC63F"/>
		<stop  offset="1" style="stop-color:#39B54A"/>
	</linearGradient>
	<rect x="629.5" y="183.5" fill="url(#SVGID_13_)" stroke="#000000" stroke-miterlimit="10" width="79" height="35"/>
	<linearGradient id="SVGID_14_" gradientUnits="userSpaceOnUse" x1="629.5" y1="333" x2="708.5" y2="333">
		<stop  offset="0" style="stop-color:#29ABE2"/>
		<stop  offset="1" style="stop-color:#0071BC"/>
	</linearGradient>
	<rect x="629.5" y="315.5" fill="url(#SVGID_14_)" stroke="#000000" stroke-miterlimit="10" width="79" height="35"/>
	<linearGradient id="SVGID_15_" gradientUnits="userSpaceOnUse" x1="549.5" y1="236" x2="629.5" y2="236">
		<stop  offset="0" style="stop-color:#8CC63F"/>
		<stop  offset="1" style="stop-color:#39B54A"/>
	</linearGradient>
	<rect x="549.5" y="218.5" fill="url(#SVGID_15_)" stroke="#000000" stroke-miterlimit="10" width="80" height="35"/>
	<linearGradient id="SVGID_16_" gradientUnits="userSpaceOnUse" x1="629.5" y1="236" x2="708.5" y2="236">
		<stop  offset="0" style="stop-color:#8CC63F"/>
		<stop  offset="1" style="stop-color:#39B54A"/>
	</linearGradient>
	<rect x="629.5" y="218.5" fill="url(#SVGID_16_)" stroke="#000000" stroke-miterlimit="10" width="79" height="35"/>
	<linearGradient id="SVGID_17_" gradientUnits="userSpaceOnUse" x1="549.5" y1="271" x2="629.5" y2="271">
		<stop  offset="0" style="stop-color:#8CC63F"/>
		<stop  offset="1" style="stop-color:#39B54A"/>
	</linearGradient>
	<rect x="549.5" y="253.5" fill="url(#SVGID_17_)" stroke="#000000" stroke-miterlimit="10" width="80" height="35"/>
	<linearGradient id="SVGID_18_" gradientUnits="userSpaceOnUse" x1="629.5" y1="271" x2="708.5" y2="271">
		<stop  offset="0" style="stop-color:#8CC63F"/>
		<stop  offset="1" style="stop-color:#39B54A"/>
	</linearGradient>
	<rect x="629.5" y="253.5" fill="url(#SVGID_18_)" stroke="#000000" stroke-miterlimit="10" width="79" height="35"/>
	<text transform="matrix(1 0 0 1 416.124 129.9434)"><tspan x="0" y="0" font-family="'MyriadPro-Regular'" font-size="12">Marketing Advertisment</tspan><tspan x="89.231" y="14.4" font-family="'MyriadPro-Regular'" font-size="12"> Space</tspan></text>
	<text transform="matrix(1 0 0 1 474.5039 200.9434)"><tspan x="0" y="0" font-family="'MyriadPro-Regular'" font-size="12">Top Treding </tspan><tspan x="-33.324" y="14.4" font-family="'MyriadPro-Regular'" font-size="12">Products/ Category</tspan></text>
	<text transform="matrix(1 0 0 1 423.3721 329.6104)" font-family="'MyriadPro-Regular'" font-size="12">Top Category Products</text>
	<text transform="matrix(1 0 0 1 408.3848 368.2764)" font-family="'MyriadPro-Regular'" font-size="12">Top Category Product List</text>
	<text transform="matrix(1 0 0 1 456.9238 429.6104)" font-family="'MyriadPro-Regular'" font-size="12">All Category List</text>
	<text transform="matrix(1 0 0 1 476.3037 538.4434)" font-family="'MyriadPro-Regular'" font-size="12">Join To Chat</text>
	<text transform="matrix(1 0 0 1 442.7158 585.7764)" font-family="'MyriadPro-Regular'" font-size="12">Partners Marketing</text>
	<text transform="matrix(1 0 0 1 399.7324 667.7764)" font-family="'MyriadPro-Regular'" font-size="12">Affiliate Program Marketing</text>
	<text transform="matrix(1 0 0 1 439.0566 745.1094)" font-family="'MyriadPro-Regular'" font-size="12">Experimental Space</text>
	<text transform="matrix(1 0 0 1 442.3438 821.9434)" font-family="'MyriadPro-Regular'" font-size="12">Foot Notes/ Socials</text>
</g>
</svg>
