<?xml version="1.0" encoding="utf-8"?>
<!-- Generator: Adobe Illustrator 16.0.0, SVG Export Plug-In . SVG Version: 6.00 Build 0)  -->
<!DOCTYPE svg PUBLIC "-//W3C//DTD SVG 1.1//EN" "http://www.w3.org/Graphics/SVG/1.1/DTD/svg11.dtd">
<svg version="1.1" id="Layer_1" xmlns="http://www.w3.org/2000/svg" xmlns:xlink="http://www.w3.org/1999/xlink" x="0px" y="0px"
	 width="432px" height="432px" viewBox="0 0 432 432" enable-background="new 0 0 432 432" xml:space="preserve">
<circle fill="#6C6C6C" cx="216" cy="217.934" r="214.066"/>
<path fill="#FFFFFF" d="M309.615,102.953c-16.293-16.292-42.735-16.292-59.028,0L127.728,225.814
	c-28.111,28.11-28.111,73.648,0,101.761c28.111,28.11,73.649,28.11,101.76,0l101.494-101.493c7.276-7.278,19.164-7.278,26.441,0
	c7.278,7.277,7.278,19.163,0,26.44L255.929,354.017c-42.733,42.732-111.909,42.732-154.643,0
	c-42.734-42.733-42.734-111.91,0-154.645l122.861-122.86c30.916-30.916,80.994-30.916,111.91,0
	c30.914,30.916,30.914,80.995,0,111.911L218.537,305.94c-19.097,19.097-50.079,19.097-69.175,0
	c-19.097-19.098-19.097-50.079,0-69.175l96.151-96.153c7.279-7.278,19.164-7.278,26.441,0c7.28,7.279,7.28,19.164,0,26.442
	l-96.15,96.152c-4.475,4.474-4.475,11.817,0,16.292c4.474,4.474,11.818,4.474,16.292,0l117.52-117.518
	C325.906,145.688,325.906,119.246,309.615,102.953z"/>
</svg>
