<?xml version="1.0" encoding="utf-8"?>
<!-- Generator: Adobe Illustrator 16.0.0, SVG Export Plug-In . SVG Version: 6.00 Build 0)  -->
<!DOCTYPE svg PUBLIC "-//W3C//DTD SVG 1.1//EN" "http://www.w3.org/Graphics/SVG/1.1/DTD/svg11.dtd">
<svg version="1.1" id="Layer_1" xmlns="http://www.w3.org/2000/svg" xmlns:xlink="http://www.w3.org/1999/xlink" x="0px" y="0px"
	 width="432px" height="432px" viewBox="0 0 432 432" enable-background="new 0 0 432 432" xml:space="preserve">
<path fill="#808080" d="M27,81c0-14.935,12.065-27,27-27h324c14.935,0,27,12.065,27,27s-12.065,27-27,27H54
	C39.065,108,27,95.935,27,81z M27,216c0-14.935,12.065-27,27-27h324c14.935,0,27,12.065,27,27s-12.065,27-27,27H54
	C39.065,243,27,230.935,27,216z M405,351c0,14.935-12.065,27-27,27H54c-14.935,0-27-12.065-27-27s12.065-27,27-27h324
	C392.935,324,405,336.065,405,351z"/>
</svg>
