<?xml version="1.0" encoding="utf-8"?>
<!-- Generator: Adobe Illustrator 16.0.0, SVG Export Plug-In . SVG Version: 6.00 Build 0)  -->
<!DOCTYPE svg PUBLIC "-//W3C//DTD SVG 1.1//EN" "http://www.w3.org/Graphics/SVG/1.1/DTD/svg11.dtd">
<svg version="1.1" id="Layer_1" xmlns="http://www.w3.org/2000/svg" xmlns:xlink="http://www.w3.org/1999/xlink" x="0px" y="0px"
	 width="432px" height="432px" viewBox="0 0 432 432" enable-background="new 0 0 432 432" xml:space="preserve">
<circle fill="#6C6C6C" cx="215" cy="223" r="206"/>
<path fill="#FFFFFF" d="M349.836,193h-44.752l-48.672-93.198c-3.188-6.116-10.77-8.304-16.939-5.115
	c-6.168,3.189-8.521,10.443-5.332,16.613l42.66,81.7H155.199l42.66-81.591c3.189-6.169,0.784-13.532-5.333-16.721
	s-13.75-1.11-16.938,5.006L126.916,193H82.165c-9.253,0-16.729,7.911-16.729,17.165s7.476,16.947,16.729,16.947l27.133,108.507
	C113.009,350.518,126.393,361,141.763,361h148.474c15.37,0,28.753-10.374,32.466-25.273l27.133-108.439
	c9.254,0,16.729-7.889,16.729-17.143C366.564,200.891,359.09,193,349.836,193z"/>
</svg>
