<?xml version="1.0" encoding="utf-8"?>
<!-- Generator: Adobe Illustrator 16.0.0, SVG Export Plug-In . SVG Version: 6.00 Build 0)  -->
<!DOCTYPE svg PUBLIC "-//W3C//DTD SVG 1.1//EN" "http://www.w3.org/Graphics/SVG/1.1/DTD/svg11.dtd">
<svg version="1.1" id="Layer_1" xmlns="http://www.w3.org/2000/svg" xmlns:xlink="http://www.w3.org/1999/xlink" x="0px" y="0px"
	 width="432px" height="432px" viewBox="0 0 432 432" enable-background="new 0 0 432 432" xml:space="preserve">
<g>
	<path fill="#6C6C6C" d="M274.07,188.508c-33.264-24.906-66.317-49.657-99.813-74.736c-36.504,29.025-72.972,58.02-109.991,87.454
		c-10.334-12.886-20.586-25.67-31.021-38.68c46.503-37.195,92.791-74.216,139.819-111.83c33.139,24.991,66.318,50.012,99.741,75.217
		c36.692-29.359,73.21-58.58,110.143-88.13c10.35,12.904,20.528,25.595,31.017,38.671
		C367.386,113.776,320.912,150.995,274.07,188.508z"/>
	<path fill="#6C6C6C" d="M197.918,381.598c-16.382,0-32.453,0-48.836,0c0-66.488,0-132.707,0-199.195c16.382,0,32.453,0,48.836,0
		C197.918,248.891,197.918,315.109,197.918,381.598z"/>
	<path fill="#6C6C6C" d="M397.917,381.596c-16.378,0-32.449,0-48.834,0c0-66.482,0-132.703,0-199.19c16.378,0,32.449,0,48.834,0
		C397.917,248.889,397.917,315.107,397.917,381.596z"/>
	<path fill="#6C6C6C" d="M297.917,381.598c-16.38,0-32.45,0-48.834,0c0-49.82,0-99.373,0-149.193c16.38,0,32.45,0,48.834,0
		C297.917,282.223,297.917,331.775,297.917,381.598z"/>
	<path fill="#6C6C6C" d="M97.916,381.596c-16.377,0-32.448,0-48.832,0c0-41.482,0-82.701,0-124.191c16.377,0,32.448,0,48.832,0
		C97.916,298.889,97.916,340.105,97.916,381.596z"/>
</g>
</svg>
