<?xml version="1.0" encoding="utf-8"?>
<!-- Generator: Adobe Illustrator 16.0.0, SVG Export Plug-In . SVG Version: 6.00 Build 0)  -->
<!DOCTYPE svg PUBLIC "-//W3C//DTD SVG 1.1//EN" "http://www.w3.org/Graphics/SVG/1.1/DTD/svg11.dtd">
<svg version="1.1" id="Layer_1" xmlns="http://www.w3.org/2000/svg" xmlns:xlink="http://www.w3.org/1999/xlink" x="0px" y="0px"
	 width="432px" height="432px" viewBox="0 0 432 432" enable-background="new 0 0 432 432" xml:space="preserve">
<g>
	<path fill-rule="evenodd" clip-rule="evenodd" fill="#6C6C6C" d="M142.116,345.139c-2.478,0-4.294,0-6.111,0
		c-22.225,0-44.451,0.128-66.674-0.04c-19.816-0.148-35.553-8.076-46.051-25.299c-4.832-7.928-6.9-16.728-6.911-25.883
		c-0.083-74.799-0.153-149.597,0.013-224.394c0.056-25.138,16.403-44.858,41.012-50.182c4-0.865,8.219-0.997,12.337-0.999
		c98.403-0.053,196.806-0.062,295.208-0.028c31.5,0.011,53.312,21.745,53.326,53.123c0.038,73.573,0.03,147.144,0.002,220.717
		c-0.01,23.021-11.779,41.432-32.455,49.157c-6.719,2.511-14.326,3.581-21.546,3.661c-33.409,0.373-66.825,0.221-100.239,0.089
		c-3.757-0.015-6.678,0.997-9.638,3.246c-29.397,22.341-58.875,44.577-88.354,66.812c-1.82,1.372-3.727,2.741-5.796,3.652
		c-9.012,3.966-17.916-1.459-18.031-11.27c-0.221-18.851-0.083-37.705-0.093-56.558
		C142.116,349.149,142.116,347.354,142.116,345.139z M179.333,357.836c2.207-1.538,3.555-2.432,4.854-3.391
		c17.383-12.823,34.841-25.546,52.101-38.534c7.548-5.682,15.731-8.345,25.187-8.229c19.615,0.238,39.235,0.071,58.854,0.071
		c15.173,0,30.347,0.064,45.52-0.024c10.282-0.061,14.879-4.71,15.042-14.872c0.009-0.613,0.003-1.227,0.003-1.839
		c0-72.801,0.001-145.603-0.007-218.404c0-1.684-0.014-3.375-0.158-5.051c-0.576-6.714-3.738-10.244-10.435-11.445
		c-2.091-0.375-4.263-0.415-6.397-0.415c-97.784-0.019-195.567-0.018-293.351-0.015c-12.942,0-16.837,3.833-16.839,16.62
		c-0.007,72.954-0.007,145.909,0,218.863c0.001,12.236,4.342,16.572,16.575,16.578c22.836,0.011,45.672-0.016,68.509,0.008
		c24.865,0.026,40.407,15.562,40.541,40.481C179.346,351.089,179.333,353.939,179.333,357.836z"/>
	<path fill-rule="evenodd" clip-rule="evenodd" fill="#FFFFFF" d="M179.333,357.836c0-3.896,0.013-6.747-0.001-9.597
		c-0.134-24.92-15.676-40.455-40.541-40.481c-22.837-0.023-45.673,0.003-68.509-0.008c-12.232-0.006-16.574-4.342-16.575-16.578
		c-0.008-72.954-0.008-145.909,0-218.863c0.001-12.788,3.897-16.62,16.839-16.62c97.784-0.003,195.566-0.004,293.351,0.015
		c2.135,0,4.307,0.04,6.397,0.415c6.696,1.201,9.858,4.731,10.435,11.445c0.145,1.676,0.158,3.367,0.158,5.051
		c0.008,72.801,0.007,145.603,0.007,218.404c0,0.612,0.006,1.226-0.003,1.839c-0.163,10.162-4.76,14.812-15.042,14.872
		c-15.173,0.089-30.347,0.024-45.52,0.024c-19.618,0-39.238,0.167-58.854-0.071c-9.455-0.115-17.639,2.548-25.187,8.229
		c-17.26,12.988-34.717,25.711-52.101,38.534C182.888,355.404,181.54,356.298,179.333,357.836z M217.113,206.516
		c14.547,0.082,24.936-10.151,25.063-24.686c0.127-14.482-10.177-24.941-24.696-25.069c-14.504-0.127-24.771,9.992-25.062,24.701
		C192.137,195.766,202.652,206.434,217.113,206.516z M104.495,181.67c-0.026,14.495,10.326,24.868,24.79,24.838
		c14.375-0.028,25.014-10.651,24.938-24.902c-0.077-14.401-10.576-24.826-25.004-24.83
		C114.712,156.773,104.521,167.034,104.495,181.67z M330.1,181.673c-0.025-14.636-10.214-24.898-24.719-24.896
		c-14.43,0.001-24.929,10.425-25.008,24.827c-0.078,14.25,10.559,24.876,24.934,24.905
		C319.771,206.539,330.125,196.168,330.1,181.673z"/>
	<path fill-rule="evenodd" clip-rule="evenodd" fill="#6C6C6C" d="M217.113,206.516c-14.461-0.082-24.977-10.75-24.694-25.054
		c0.29-14.709,10.558-24.828,25.062-24.701c14.52,0.127,24.823,10.587,24.696,25.069
		C242.049,196.365,231.66,206.598,217.113,206.516z"/>
	<path fill-rule="evenodd" clip-rule="evenodd" fill="#6C6C6C" d="M104.495,181.67c0.027-14.636,10.217-24.897,24.724-24.894
		c14.429,0.004,24.928,10.429,25.004,24.83c0.076,14.251-10.563,24.874-24.938,24.902
		C114.821,206.538,104.469,196.165,104.495,181.67z"/>
	<path fill-rule="evenodd" clip-rule="evenodd" fill="#6C6C6C" d="M330.1,181.673c0.025,14.496-10.329,24.866-24.793,24.835
		c-14.375-0.029-25.012-10.655-24.934-24.905c0.079-14.401,10.578-24.826,25.008-24.827
		C319.886,156.775,330.074,167.037,330.1,181.673z"/>
</g>
</svg>
