<?xml version="1.0" encoding="utf-8"?>
<!-- Generator: Adobe Illustrator 16.0.0, SVG Export Plug-In . SVG Version: 6.00 Build 0)  -->
<!DOCTYPE svg PUBLIC "-//W3C//DTD SVG 1.1//EN" "http://www.w3.org/Graphics/SVG/1.1/DTD/svg11.dtd">
<svg version="1.1" id="Layer_1" xmlns="http://www.w3.org/2000/svg" xmlns:xlink="http://www.w3.org/1999/xlink" x="0px" y="0px"
	 width="432px" height="432px" viewBox="0 0 432 432" enable-background="new 0 0 432 432" xml:space="preserve">
<circle fill-rule="evenodd" clip-rule="evenodd" fill="#6C6C6C" cx="221.298" cy="206" r="203.702"/>
<path fill-rule="evenodd" clip-rule="evenodd" fill="#FFFFFF" d="M369.217,149.285c-18.552-31.171-46.808-51.032-80.402-63.094
	c-34.846-12.511-70.752-14.62-107.16-7.645c-27.541,5.277-52.681,15.97-74.804,33.323c-23.567,18.485-40.538,41.466-47.703,71.024
	c-5.426,22.382-3.876,44.316,4.145,65.816c4.863,13.037,11.899,24.817,20.986,35.391c1.134,1.319,2.247,3.38,2.077,4.959
	c-0.452,4.22-1.406,8.417-2.518,12.528c-4.552,16.815-12.984,31.531-24.655,44.394c-3.34,3.681-4.256,7.75-2.358,12.176
	c1.914,4.467,5.829,6.22,10.489,5.744c7.522-0.769,15.109-1.376,22.499-2.884c22.086-4.511,41.821-14.539,60.41-26.958
	c2.653-1.773,4.881-2.269,7.927-1.184c20.343,7.249,41.451,10.028,65.436,10.307c18.355-0.683,35.861-1.765,61.685-10.488
	c35.215-11.896,64.559-32.043,83.892-64.27C392.784,229.048,392.705,188.75,369.217,149.285z"/>
<circle fill-rule="evenodd" clip-rule="evenodd" fill="#6C6C6C" cx="138.3" cy="210.177" r="27.905"/>
<circle fill-rule="evenodd" clip-rule="evenodd" fill="#6C6C6C" cx="221.582" cy="210.177" r="27.905"/>
<circle fill-rule="evenodd" clip-rule="evenodd" fill="#6C6C6C" cx="306.563" cy="210.177" r="27.905"/>
</svg>
