<?xml version="1.0" encoding="utf-8"?>
<!-- Generator: Adobe Illustrator 16.0.0, SVG Export Plug-In . SVG Version: 6.00 Build 0)  -->
<!DOCTYPE svg PUBLIC "-//W3C//DTD SVG 1.1//EN" "http://www.w3.org/Graphics/SVG/1.1/DTD/svg11.dtd">
<svg version="1.1" id="Layer_1" xmlns="http://www.w3.org/2000/svg" xmlns:xlink="http://www.w3.org/1999/xlink" x="0px" y="0px"
	 width="432px" height="432px" viewBox="0 0 432 432" enable-background="new 0 0 432 432" xml:space="preserve">
<path fill-rule="evenodd" clip-rule="evenodd" fill="#808080" d="M263.286,220.104c-54.441,54.381-108.881,108.765-163.271,163.195
	c-4.864,4.867-8.412,10.648-8.209,17.786c0.239,8.466,3.96,15.295,11.427,19.572c7.871,4.507,15.857,4.235,23.556-0.571
	c2.036-1.271,3.94-2.849,5.643-4.548c60.11-60.056,120.189-120.143,180.272-180.227c4.846-4.847,8.07-10.536,8.219-17.508
	c0.156-7.339-3.212-13.275-8.26-18.328c-37.516-37.539-75.049-75.061-112.574-112.588c-22.557-22.556-45.105-45.12-67.675-67.661
	c-4.913-4.907-10.72-8.312-17.807-8.131c-8.665,0.221-15.493,3.975-19.844,11.823c-4.433,7.995-3.906,15.722,0.985,23.211
	c1.566,2.397,3.458,4.639,5.483,6.668c53.984,54.047,108.005,108.056,162.034,162.058
	C264.051,215.642,264.07,219.32,263.286,220.104z"/>
</svg>
