<?xml version="1.0" encoding="utf-8"?>
<!-- Generator: Adobe Illustrator 16.0.0, SVG Export Plug-In . SVG Version: 6.00 Build 0)  -->
<!DOCTYPE svg PUBLIC "-//W3C//DTD SVG 1.1//EN" "http://www.w3.org/Graphics/SVG/1.1/DTD/svg11.dtd">
<svg version="1.1" id="Layer_1" xmlns="http://www.w3.org/2000/svg" xmlns:xlink="http://www.w3.org/1999/xlink" x="0px" y="0px"
	 width="432px" height="432px" viewBox="0 0 432 432" enable-background="new 0 0 432 432" xml:space="preserve">
<path fill="#808080" d="M221.954,274.433c54.381-54.441,108.765-108.881,163.195-163.272c4.867-4.863,10.648-8.411,17.785-8.209
	c8.466,0.239,15.295,3.96,19.572,11.428c4.507,7.87,4.234,15.856-0.571,23.556c-1.271,2.036-2.849,3.939-4.548,5.643
	c-60.056,60.11-120.144,120.19-180.228,180.273c-4.847,4.847-10.535,8.069-17.507,8.219c-7.34,0.156-13.275-3.212-18.328-8.26
	c-37.539-37.516-75.061-75.048-112.588-112.573c-22.556-22.558-45.12-45.105-67.661-67.676c-4.907-4.913-8.312-10.72-8.131-17.808
	c0.221-8.664,3.975-15.492,11.823-19.844c7.995-4.433,15.722-3.905,23.211,0.985c2.396,1.566,4.639,3.458,6.668,5.483
	c54.047,53.984,108.056,108.005,162.058,162.034C217.492,275.197,221.171,275.217,221.954,274.433z"/>
</svg>
