<?xml version="1.0" encoding="utf-8"?>
<!-- Generator: Adobe Illustrator 16.0.0, SVG Export Plug-In . SVG Version: 6.00 Build 0)  -->
<!DOCTYPE svg PUBLIC "-//W3C//DTD SVG 1.1//EN" "http://www.w3.org/Graphics/SVG/1.1/DTD/svg11.dtd">
<svg version="1.1" id="Layer_1" xmlns="http://www.w3.org/2000/svg" xmlns:xlink="http://www.w3.org/1999/xlink" x="0px" y="0px"
	 width="432px" height="432px" viewBox="0 0 432 432" enable-background="new 0 0 432 432" xml:space="preserve">
<circle fill="#FFFFFF" stroke="#000000" stroke-miterlimit="10" cx="216" cy="216" r="123.5"/>
<path fill="#8EC63F" d="M216,432c119.294,0,216-96.707,216-216S335.294,0,216,0C96.707,0,0,96.707,0,216S96.707,432,216,432z
	 M195.75,290.25v-54h-54c-11.222,0-20.25-9.027-20.25-20.25c0-11.222,9.028-20.25,20.25-20.25h54v-54
	c0-11.222,9.028-20.25,20.25-20.25c11.223,0,20.25,9.028,20.25,20.25v54h54c11.223,0,20.25,9.028,20.25,20.25
	c0,11.223-9.027,20.25-20.25,20.25h-54v54c0,11.223-9.027,20.25-20.25,20.25C204.778,310.5,195.75,301.473,195.75,290.25z"/>
</svg>
