<?xml version="1.0" encoding="utf-8"?>
<!-- Generator: Adobe Illustrator 16.0.0, SVG Export Plug-In . SVG Version: 6.00 Build 0)  -->
<!DOCTYPE svg PUBLIC "-//W3C//DTD SVG 1.1//EN" "http://www.w3.org/Graphics/SVG/1.1/DTD/svg11.dtd">
<svg version="1.1" id="Layer_1" xmlns="http://www.w3.org/2000/svg" xmlns:xlink="http://www.w3.org/1999/xlink" x="0px" y="0px"
	 width="432px" height="432px" viewBox="0 0 432 432" enable-background="new 0 0 432 432" xml:space="preserve">
<path fill="#808080" d="M104.288,330.159c10.884-7.931,24.975-9.956,37.631-5.399c22.359,8.1,47.418,12.74,74.081,12.74
	c105.216,0,175.5-67.922,175.5-135s-70.284-135-175.5-135s-175.5,67.922-175.5,135c0,27,10.462,52.987,30.122,75.263
	c7.256,8.185,10.8,18.984,9.956,29.953c-1.181,15.271-4.81,29.278-9.534,41.681c14.344-6.665,26.24-14.09,33.244-19.152V330.159z
	 M17.888,364.416c1.519-2.278,2.953-4.557,4.303-6.835c8.438-14.006,16.453-32.399,18.057-53.071C14.935,275.737,0,240.553,0,202.5
	C0,105.553,96.694,27,216,27c119.307,0,216,78.553,216,175.5c0,96.947-96.693,175.5-216,175.5c-31.303,0-61.003-5.4-87.834-15.104
	c-10.041,7.341-26.409,17.382-45.815,25.819c-12.741,5.568-27.253,10.631-42.272,13.584c-0.675,0.169-1.35,0.253-2.025,0.422
	c-3.712,0.675-7.341,1.266-11.138,1.604c-0.168,0-0.422,0.084-0.59,0.084c-4.303,0.422-8.606,0.675-12.91,0.675
	c-5.484,0-10.378-3.29-12.487-8.353S0,385.932,3.797,382.05c3.459-3.544,6.581-7.341,9.534-11.391
	c1.435-1.94,2.785-3.881,4.05-5.821c0.084-0.169,0.168-0.254,0.253-0.422H17.888z"/>
</svg>
