<?xml version="1.0" encoding="utf-8"?>
<!-- Generator: Adobe Illustrator 16.0.0, SVG Export Plug-In . SVG Version: 6.00 Build 0)  -->
<!DOCTYPE svg PUBLIC "-//W3C//DTD SVG 1.1//EN" "http://www.w3.org/Graphics/SVG/1.1/DTD/svg11.dtd">
<svg version="1.1" id="Layer_1" xmlns="http://www.w3.org/2000/svg" xmlns:xlink="http://www.w3.org/1999/xlink" x="0px" y="0px"
	 width="432px" height="432px" viewBox="0 0 432 432" enable-background="new 0 0 432 432" xml:space="preserve">
<g>
	<path fill-rule="evenodd" clip-rule="evenodd" fill="#6C6C6C" d="M153.322,62.214c34.208,0,68.416,0.039,102.623-0.019
		c13.67-0.022,24.288,5.481,30.655,17.621c4.106,7.831,4.541,16.443,0.741,24.626c-1.955,4.214-4.582,8.31-7.676,11.772
		c-24.863,27.833-49.93,55.486-74.839,83.28c-1.115,1.243-1.861,3.302-1.864,4.983c-0.101,42.712-0.049,85.425-0.103,128.138
		c-0.012,9.758-3.638,17.796-11.929,23.44c-8.058,5.487-18.979,5.218-27.826-1.293c-16.432-12.091-32.714-24.388-49.027-36.64
		c-7.062-5.305-10.309-12.388-10.274-21.279c0.118-30.617,0.024-61.233,0.087-91.851c0.005-2.319-0.593-4.031-2.19-5.792
		c-25.009-27.575-49.93-55.233-74.899-82.846c-5.893-6.518-9.969-13.814-9.651-22.865c0.52-14.805,11.008-29.31,27.344-30.806
		c2.627-0.241,5.27-0.449,7.905-0.451C86.04,62.205,119.681,62.214,153.322,62.214z"/>
	<path fill-rule="evenodd" clip-rule="evenodd" fill="#6C6C6C" d="M339.488,186.337c16.244-0.002,32.487,0.033,48.73-0.016
		c10.375-0.031,18.554,4.02,22.944,13.557c7.1,15.423-1.262,33.954-19.465,35.631c-1.408,0.129-2.831,0.139-4.246,0.139
		c-32.107,0.008-64.216-0.018-96.325,0.026c-6.214,0.008-11.949-1.158-16.967-5.133c-6.892-5.46-9.663-12.729-9.016-21.198
		c1.086-14.217,10.479-22.867,24.766-22.975C306.436,186.243,322.963,186.339,339.488,186.337z"/>
	<path fill-rule="evenodd" clip-rule="evenodd" fill="#6C6C6C" d="M339.47,310.507c16.999,0,34.006-0.3,50.996,0.095
		c14.075,0.325,23.489,10.98,23.058,25.09c-0.447,14.584-10.318,24-25.491,24.06c-21.816,0.086-43.635,0.022-65.452,0.022
		c-10.672,0-21.346,0.031-32.018-0.011c-10.133-0.037-18.334-3.771-22.899-13.211c-7.638-15.791,1.511-35.435,19.961-35.918
		c17.271-0.454,34.563-0.099,51.846-0.099C339.47,310.526,339.47,310.517,339.47,310.507z"/>
	<path fill-rule="evenodd" clip-rule="evenodd" fill="#6C6C6C" d="M364.113,111.48c-8.779,0-17.571,0.275-26.337-0.063
		c-14.037-0.542-23.478-11.04-23.047-25.119c0.433-14.154,9.83-23.723,24.342-23.991c16.706-0.309,33.426-0.272,50.134-0.005
		c12.439,0.2,21.255,7.189,23.733,18.7c3.569,16.592-7.304,30.193-22.486,30.452C381.674,111.604,372.893,111.481,364.113,111.48z"
		/>
</g>
</svg>
