<?xml version="1.0" encoding="utf-8"?>
<!-- Generator: Adobe Illustrator 16.0.0, SVG Export Plug-In . SVG Version: 6.00 Build 0)  -->
<!DOCTYPE svg PUBLIC "-//W3C//DTD SVG 1.1//EN" "http://www.w3.org/Graphics/SVG/1.1/DTD/svg11.dtd">
<svg version="1.1" id="Layer_1" xmlns="http://www.w3.org/2000/svg" xmlns:xlink="http://www.w3.org/1999/xlink" x="0px" y="0px"
	 width="432px" height="432px" viewBox="0 0 432 432" enable-background="new 0 0 432 432" xml:space="preserve">
<g>
	<path fill-rule="evenodd" clip-rule="evenodd" fill="#6C6C6C" d="M212.299,309.536c-24.498,0-48.995,0.047-73.492-0.02
		c-12.643-0.034-19.975-4.153-22.786-14.545c-1.549-5.728-1.402-12.311-0.443-18.254c4.617-28.61,27.354-51.52,56.164-53.27
		c28.192-1.712,56.704-1.806,84.841,0.396c20.968,1.64,37.005,14.633,46.39,33.836c3.723,7.617,5.833,16.255,7.354,24.667
		c2.869,15.869-6.9,27.077-23.037,27.156C262.293,309.626,237.296,309.535,212.299,309.536z"/>
	<path fill-rule="evenodd" clip-rule="evenodd" fill="#6C6C6C" d="M212.526,91.35c30.198-0.126,54.329,23.87,54.427,54.124
		c0.097,29.927-24.219,54.843-54.109,54.562c-31.521-0.296-54.266-23.775-54.686-54.494
		C157.746,115.473,182.229,91.477,212.526,91.35z"/>
	<path fill-rule="evenodd" clip-rule="evenodd" fill="#6C6C6C" d="M145.954,206.699c-15.396,6.706-27.064,16.613-36.696,29.051
		c-6.195,8-10.312,17.001-13.289,26.619c-0.43,1.388-2.085,3.425-3.175,3.426c-19.957,0.009-39.931,0.181-59.863-0.621
		c-10.561-0.425-17.605-9.157-17.854-19.81c-0.576-24.703,18.638-44.413,44.322-44.843c21.298-0.355,42.607-0.195,63.909-0.006
		C130.958,200.583,138.477,201.852,145.954,206.699z"/>
	<path fill-rule="evenodd" clip-rule="evenodd" fill="#6C6C6C" d="M278.315,206.572c6.501-4.877,13.62-5.935,20.733-6.017
		c21.658-0.249,43.326-0.408,64.979-0.02c22.786,0.409,39.711,15.456,43.522,37.843c2.735,16.069-5.635,27.004-21.928,27.459
		c-17.314,0.484-34.654,0.02-51.98,0.204c-3.352,0.035-3.704-2.052-4.406-4.225c-7.015-21.709-20.599-38.137-40.121-49.732
		C285.841,210.14,282.324,208.604,278.315,206.572z"/>
	<path fill-rule="evenodd" clip-rule="evenodd" fill="#6C6C6C" d="M377.153,134.722c0.052,23.557-19.653,43.608-43.085,43.4
		c-22.186-0.196-43.686-17.021-43.639-43.454c0.047-26.54,21.459-42.993,42.688-43.283
		C357.581,91.051,377.099,110.497,377.153,134.722z"/>
	<path fill-rule="evenodd" clip-rule="evenodd" fill="#6C6C6C" d="M92.937,91.321c23.731-0.018,43.706,19.698,43.891,43.321
		c0.182,23.149-20.334,43.545-43.788,43.532c-23.275-0.012-43.222-20.064-43.194-43.423C49.873,111.154,69.534,91.338,92.937,91.321
		z"/>
</g>
</svg>
