<?xml version="1.0" encoding="utf-8"?>
<!-- Generator: Adobe Illustrator 16.0.0, SVG Export Plug-In . SVG Version: 6.00 Build 0)  -->
<!DOCTYPE svg PUBLIC "-//W3C//DTD SVG 1.1//EN" "http://www.w3.org/Graphics/SVG/1.1/DTD/svg11.dtd">
<svg version="1.1" id="Layer_1" xmlns="http://www.w3.org/2000/svg" xmlns:xlink="http://www.w3.org/1999/xlink" x="0px" y="0px"
	 width="432px" height="432px" viewBox="0 0 432 432" enable-background="new 0 0 432 432" xml:space="preserve">
<g>
	<path fill-rule="evenodd" clip-rule="evenodd" fill="#6C6C6C" d="M407.846,224.125c-0.357,108.337-86.048,199.564-199.803,199.452
		C93.581,423.465,8.437,331.507,8.548,223.878C8.66,115.598,94.41,24.317,208.291,24.429
		C322.876,24.542,407.656,116.55,407.846,224.125z M208.361,386.723c91.509-0.099,163.049-75.764,162.432-163.659
		c-0.629-89.57-74.472-162.185-162.978-161.703c-91.446,0.498-162.357,74.906-162.149,162.977
		C45.878,314.427,119.287,386.841,208.361,386.723z"/>
	<path fill-rule="evenodd" clip-rule="evenodd" fill="#6C6C6C" d="M195.509,286.777c0-17.032,0-33.44,0-50.558
		c-5.779,0-11.402,0.14-17.017-0.032c-8.202-0.252-15-3.017-18.385-11.236c-4.492-10.912,1.55-23.624,13.192-24.697
		c14.182-1.308,28.612-1.441,42.82-0.444c11.163,0.783,16.364,8.028,16.74,19.356c0.139,4.162,0.035,8.331,0.036,12.498
		c0.001,16.331,0,32.662,0,48.993c0,1.802,0,3.604,0,5.827c2.229,0.122,4.004,0.206,5.776,0.318
		c11.631,0.73,19.037,7.873,19.07,18.382c0.032,10.319-7.567,18.333-18.929,18.55c-20.489,0.392-41.007,0.588-61.483-0.059
		c-15.483-0.488-23.341-15.097-15.913-28.162c3.834-6.743,10.326-8.5,17.436-8.705C184.308,286.651,189.771,286.777,195.509,286.777
		z"/>
	<path fill-rule="evenodd" clip-rule="evenodd" fill="#6C6C6C" d="M232.788,148.817c0.094,14.592-10.175,25.023-24.628,25.018
		c-14.132-0.006-24.479-10.343-24.614-24.593c-0.136-14.291,10.545-25.136,24.69-25.072
		C222.412,124.234,232.696,134.559,232.788,148.817z"/>
</g>
</svg>
