<?xml version="1.0" encoding="utf-8"?>
<!-- Generator: Adobe Illustrator 16.0.0, SVG Export Plug-In . SVG Version: 6.00 Build 0)  -->
<!DOCTYPE svg PUBLIC "-//W3C//DTD SVG 1.1//EN" "http://www.w3.org/Graphics/SVG/1.1/DTD/svg11.dtd">
<svg version="1.1" id="Layer_1" xmlns="http://www.w3.org/2000/svg" xmlns:xlink="http://www.w3.org/1999/xlink" x="0px" y="0px"
	 width="432px" height="432px" viewBox="0 0 432 432" enable-background="new 0 0 432 432" xml:space="preserve">
<path fill="#FFFFFF" d="M216.082,121.664c-52.172,0-94.254,42.082-94.254,94.254s42.082,94.254,94.254,94.254
	s94.254-42.082,94.254-94.254S268.254,121.664,216.082,121.664z M216.082,277.195c-33.715,0-61.277-27.48-61.277-61.277
	s27.48-61.277,61.277-61.277s61.277,27.48,61.277,61.277S249.797,277.195,216.082,277.195z M336.176,117.809
	c0,12.223-9.844,21.984-21.984,21.984c-12.223,0-21.984-9.844-21.984-21.984s9.844-21.984,21.984-21.984
	S336.176,105.668,336.176,117.809z M398.602,140.121c-1.395-29.449-8.121-55.535-29.695-77.027
	c-21.492-21.492-47.578-28.219-77.027-29.695c-30.352-1.723-121.324-1.723-151.676,0c-29.367,1.395-55.453,8.121-77.027,29.613
	S34.957,110.59,33.48,140.039c-1.723,30.352-1.723,121.324,0,151.676c1.395,29.449,8.121,55.535,29.695,77.027
	s47.578,28.219,77.027,29.695c30.352,1.723,121.324,1.723,151.676,0c29.449-1.395,55.535-8.121,77.027-29.695
	c21.492-21.492,28.219-47.578,29.695-77.027C400.324,261.363,400.324,170.473,398.602,140.121z M359.391,324.281
	c-6.398,16.078-18.785,28.465-34.945,34.945c-24.199,9.598-81.621,7.383-108.363,7.383s-84.246,2.133-108.363-7.383
	c-16.078-6.398-28.465-18.785-34.945-34.945c-9.598-24.199-7.383-81.621-7.383-108.363s-2.133-84.246,7.383-108.363
	c6.398-16.078,18.785-28.465,34.945-34.945c24.199-9.598,81.621-7.383,108.363-7.383s84.246-2.133,108.363,7.383
	c16.078,6.398,28.465,18.785,34.945,34.945c9.598,24.199,7.383,81.621,7.383,108.363S368.988,300.164,359.391,324.281z"/>
</svg>
