<?xml version="1.0" encoding="utf-8"?>
<!-- Generator: Adobe Illustrator 16.0.0, SVG Export Plug-In . SVG Version: 6.00 Build 0)  -->
<!DOCTYPE svg PUBLIC "-//W3C//DTD SVG 1.1//EN" "http://www.w3.org/Graphics/SVG/1.1/DTD/svg11.dtd">
<svg version="1.1" id="Layer_1" xmlns="http://www.w3.org/2000/svg" xmlns:xlink="http://www.w3.org/1999/xlink" x="0px" y="0px"
	 width="432px" height="432px" viewBox="0 0 432 432" enable-background="new 0 0 432 432" xml:space="preserve">
<path fill="#6C6C6C" d="M107.3,127.267c0-41.458,33.608-75.066,75.067-75.066s75.066,33.608,75.066,75.066
	s-33.607,75.066-75.066,75.066S107.3,168.725,107.3,127.267z M51,335.048c0-57.765,46.799-104.564,104.565-104.564h53.602
	c57.767,0,104.566,46.8,104.566,104.564c0,9.618-7.801,17.418-17.418,17.418H68.417C58.8,352.466,51,344.666,51,335.048z
	 M346.575,235.175v-37.534h-37.534c-7.8,0-14.075-6.275-14.075-14.075s6.275-14.075,14.075-14.075h37.534v-37.533
	c0-7.8,6.275-14.075,14.075-14.075s14.074,6.275,14.074,14.075v37.533h37.533c7.8,0,14.075,6.275,14.075,14.075
	s-6.275,14.075-14.075,14.075h-37.533v37.534c0,7.8-6.274,14.075-14.074,14.075S346.575,242.975,346.575,235.175z"/>
</svg>
