<?xml version="1.0" encoding="utf-8"?>
<!-- Generator: Adobe Illustrator 16.0.0, SVG Export Plug-In . SVG Version: 6.00 Build 0)  -->
<!DOCTYPE svg PUBLIC "-//W3C//DTD SVG 1.1//EN" "http://www.w3.org/Graphics/SVG/1.1/DTD/svg11.dtd">
<svg version="1.1" id="Layer_1" xmlns="http://www.w3.org/2000/svg" xmlns:xlink="http://www.w3.org/1999/xlink" x="0px" y="0px"
	 width="432px" height="432px" viewBox="0 0 432 432" enable-background="new 0 0 432 432" xml:space="preserve">
<path fill="#6C6C6C" d="M33.75,40.5c-11.222,0-20.25,9.028-20.25,20.25v40.5c0,11.222,9.028,20.25,20.25,20.25h40.5
	c11.222,0,20.25-9.028,20.25-20.25v-40.5c0-11.222-9.028-20.25-20.25-20.25H33.75z M162,54c-14.935,0-27,12.065-27,27
	s12.065,27,27,27h243c14.935,0,27-12.065,27-27s-12.065-27-27-27H162z M162,189c-14.935,0-27,12.065-27,27c0,14.936,12.065,27,27,27
	h243c14.935,0,27-12.064,27-27c0-14.935-12.065-27-27-27H162z M162,324c-14.935,0-27,12.064-27,27s12.065,27,27,27h243
	c14.935,0,27-12.064,27-27s-12.065-27-27-27H162z M13.5,195.75v40.5c0,11.223,9.028,20.25,20.25,20.25h40.5
	c11.222,0,20.25-9.027,20.25-20.25v-40.5c0-11.222-9.028-20.25-20.25-20.25h-40.5C22.528,175.5,13.5,184.528,13.5,195.75z
	 M33.75,310.5c-11.222,0-20.25,9.027-20.25,20.25v40.5c0,11.223,9.028,20.25,20.25,20.25h40.5c11.222,0,20.25-9.027,20.25-20.25
	v-40.5c0-11.223-9.028-20.25-20.25-20.25H33.75z"/>
</svg>
