<?xml version="1.0" encoding="utf-8"?>
<!-- Generator: Adobe Illustrator 16.0.0, SVG Export Plug-In . SVG Version: 6.00 Build 0)  -->
<!DOCTYPE svg PUBLIC "-//W3C//DTD SVG 1.1//EN" "http://www.w3.org/Graphics/SVG/1.1/DTD/svg11.dtd">
<svg version="1.1" id="Layer_1" xmlns="http://www.w3.org/2000/svg" xmlns:xlink="http://www.w3.org/1999/xlink" x="0px" y="0px"
	 width="432px" height="432px" viewBox="0 0 432 432" enable-background="new 0 0 432 432" xml:space="preserve">
<path fill="#A0A0A0" d="M421.684,380.384L296.946,255.646c18.378-26.006,29.179-57.748,29.179-92.015
	C326.125,75.469,254.656,4,166.494,4C78.333,4,6.863,75.469,6.863,163.631s71.469,159.631,159.631,159.631
	c32.343,0,62.434-9.629,87.578-26.162l125.448,125.447c3.677,3.678,11.378,1.939,17.2-3.883l21.08-21.08
	C423.623,391.762,425.361,384.061,421.684,380.384z M51.791,163.631c0-63.348,51.355-114.703,114.703-114.703
	c63.35,0,114.703,51.355,114.703,114.703c0,63.35-51.354,114.703-114.703,114.703C103.146,278.334,51.791,226.98,51.791,163.631z"/>
</svg>
