<?xml version="1.0" encoding="utf-8"?>
<!-- Generator: Adobe Illustrator 16.0.0, SVG Export Plug-In . SVG Version: 6.00 Build 0)  -->
<!DOCTYPE svg PUBLIC "-//W3C//DTD SVG 1.1//EN" "http://www.w3.org/Graphics/SVG/1.1/DTD/svg11.dtd">
<svg version="1.1" id="Layer_1" xmlns="http://www.w3.org/2000/svg" xmlns:xlink="http://www.w3.org/1999/xlink" x="0px" y="0px"
	 width="432px" height="432px" viewBox="0 0 432 432" enable-background="new 0 0 432 432" xml:space="preserve">
<circle fill-rule="evenodd" clip-rule="evenodd" fill="#8EC63F" cx="216" cy="216" r="216"/>
<path fill-rule="evenodd" clip-rule="evenodd" fill="#FFFFFF" d="M86.83,319.251c0.689-2.043,1.49-6.104,3.337-9.616
	c11.308-21.502,22.914-42.847,34.277-64.319c3.084-5.826,7.739-8.849,14.139-9.636c29.278-3.602,58.551-7.237,87.826-10.865
	c2.29-0.284,4.795-0.402,5.221-3.401c0.406-2.863-1.151-4.137-3.897-4.475c-13.881-1.71-27.753-3.49-41.631-5.231
	c-16.401-2.058-32.81-4.053-49.202-6.178c-5.401-0.7-9.362-3.653-11.961-8.474c-11.711-21.72-23.58-43.357-35.121-65.167
	c-6.311-11.927-2.205-24.756,9.212-30.151c6.43-3.038,12.755-1.493,18.811,1.114c40.885,17.597,81.727,35.294,122.586,52.95
	c34.672,14.982,69.357,29.935,104.021,44.938c12.218,5.288,17.403,16.555,12.846,27.901c-2.423,6.03-7.181,9.686-12.987,12.194
	c-46.931,20.277-93.855,40.568-140.785,60.85c-28.601,12.36-57.186,24.759-85.827,37.025c-6.572,2.816-13.415,4.454-20.124,0.319
	C90.994,334.977,87.044,329.222,86.83,319.251z"/>
</svg>
