<?xml version="1.0" encoding="utf-8"?>
<!-- Generator: Adobe Illustrator 16.0.0, SVG Export Plug-In . SVG Version: 6.00 Build 0)  -->
<!DOCTYPE svg PUBLIC "-//W3C//DTD SVG 1.1//EN" "http://www.w3.org/Graphics/SVG/1.1/DTD/svg11.dtd">
<svg version="1.1" id="Layer_1" xmlns="http://www.w3.org/2000/svg" xmlns:xlink="http://www.w3.org/1999/xlink" x="0px" y="0px"
	 width="600px" height="600px" viewBox="0 0 600 600" enable-background="new 0 0 600 600" xml:space="preserve">
<g>
	<path fill-rule="evenodd" clip-rule="evenodd" fill="#666666" d="M170.294,147.32c5.5,1.478,14.37,3.832,23.223,6.254
		c4.053,1.109,8.065,2.367,12.104,3.531c8.839,2.548,15.811-1.425,18.019-10.37c1.744-7.064,3.673-14.106,4.946-21.26
		c3.672-20.636,14.946-32.519,36.444-35.363c25.599-3.386,50.903-3.472,76.298,1.314c16.464,3.103,25.037,13.635,28.904,28.987
		c2.171,8.622,4.047,17.318,6.093,25.973c2.186,9.254,9.129,13.313,18.225,10.695c9.477-2.727,18.953-5.455,28.431-8.179
		c15.196-4.368,27.802,0.083,37.97,11.682c19.063,21.744,32.183,46.862,41.011,74.257c4.477,13.89-0.211,25.394-10.421,35.065
		c-6.815,6.457-13.705,12.837-20.557,19.258c-6.53,6.122-6.569,14.998-0.124,21.317c8.657,8.487,17.823,16.53,25.795,25.619
		c7.163,8.166,8.687,18.584,5.352,28.82c-8.697,26.695-21.464,51.283-39.771,72.794c-10.76,12.642-23.81,17.828-40.219,12.872
		c-9.282-2.803-18.628-5.404-27.963-8.037c-8.499-2.396-15.555,1.732-17.644,10.325c-1.718,7.067-3.679,14.1-4.931,21.253
		c-3.698,21.16-15.461,32.941-37.333,35.62c-25.27,3.095-50.234,3.279-75.308-1.478c-15.584-2.953-24.404-12.411-28.409-27.021
		c-2.521-9.193-4.484-18.539-6.672-27.821c-2.184-9.266-9.017-13.357-18.162-10.775c-9.645,2.724-19.254,5.567-28.913,8.24
		c-14.788,4.092-26.8-0.075-36.886-11.658c-18.882-21.681-32.485-46.238-41.456-73.455c-4.932-14.962,0.32-26.888,11.204-37.072
		c6.383-5.971,12.849-11.854,19.223-17.834c7.001-6.567,6.888-15.303,0.008-21.984c-8.695-8.443-17.656-16.666-25.741-25.667
		c-7.722-8.598-8.114-19.162-4.583-29.719c9.3-27.805,23.626-52.806,42.944-74.871C148.013,151.07,156.532,147.225,170.294,147.32z
		 M169.738,187.823c-0.833,0.655-2.326,1.463-3.332,2.675c-12.212,14.7-21.51,31.107-28.078,49.026
		c-0.536,1.462,0.088,4.14,1.186,5.279c5.39,5.593,11.113,10.866,16.733,16.237c23.42,22.382,23.221,56.685-0.478,78.773
		c-5.449,5.079-11.042,10.012-16.326,15.254c-1.027,1.02-1.713,3.452-1.24,4.753c6.59,18.089,15.997,34.602,28.18,49.546
		c1.852,2.271,3.479,2.6,6.207,1.758c8.341-2.572,16.882-4.518,25.177-7.22c25.876-8.432,59.739,12.05,64.759,40.142
		c1.364,7.636,3.133,15.214,5.1,22.72c0.406,1.551,2.373,3.603,3.86,3.825c18.997,2.839,38.049,2.844,57.046,0.008
		c1.516-0.227,3.516-2.222,3.957-3.774c2.301-8.083,4.121-16.302,6.194-24.451c6.562-25.79,31.149-43.037,57.423-39.407
		c9.693,1.341,19.206,4.435,28.587,7.405c4.861,1.539,7.591,0.901,10.85-3.299c11.119-14.327,19.858-29.896,26.156-46.842
		c0.54-1.453-0.015-4.113-1.084-5.226c-5.61-5.833-11.563-11.335-17.373-16.975c-20.909-20.289-22.779-50.22-3.92-72.608
		c6.219-7.383,13.845-13.592,20.949-20.209c1.851-1.724,2.657-3.123,1.631-5.766c-6.904-17.788-16.112-34.209-28.193-49.019
		c-1.817-2.228-3.445-2.742-6.205-1.85c-7.383,2.387-14.955,4.194-22.313,6.649c-28.45,9.495-58.427-9.661-65.408-35.019
		c-2.446-8.885-4.875-17.783-6.938-26.761c-0.773-3.364-2.463-4.3-5.6-4.697c-18.086-2.286-36.137-2.308-54.229-0.028
		c-3.375,0.425-5.054,1.477-5.757,5.038c-1.813,9.195-3.465,18.5-6.316,27.399c-8.535,26.646-38.597,41.911-66.084,34.016
		C186.778,192.852,178.719,190.453,169.738,187.823z"/>
	<path fill-rule="evenodd" clip-rule="evenodd" fill="#666666" d="M220.586,299.71c0.142-43.648,36.075-79.482,79.596-79.375
		c43.496,0.107,79.605,36.41,79.277,79.703c-0.33,43.709-36.401,79.712-79.602,79.448
		C256.315,379.224,220.445,343.124,220.586,299.71z M300.211,259.932c-22.293-0.048-40.413,17.952-40.244,39.98
		c0.169,21.991,18.01,39.885,39.855,39.977c22.077,0.093,40.412-18.163,40.246-40.072
		C339.899,277.708,322.184,259.98,300.211,259.932z"/>
</g>
</svg>
