<?xml version="1.0" encoding="utf-8"?>
<!-- Generator: Adobe Illustrator 16.0.0, SVG Export Plug-In . SVG Version: 6.00 Build 0)  -->
<!DOCTYPE svg PUBLIC "-//W3C//DTD SVG 1.1//EN" "http://www.w3.org/Graphics/SVG/1.1/DTD/svg11.dtd">
<svg version="1.1" id="Layer_1" xmlns="http://www.w3.org/2000/svg" xmlns:xlink="http://www.w3.org/1999/xlink" x="0px" y="0px"
	 width="432px" height="432px" viewBox="0 0 432 432" enable-background="new 0 0 432 432" xml:space="preserve">
<path fill="#FFFFFF" d="M382.827,130.455c0.267,3.731,0.267,7.462,0.267,11.193c0,113.794-86.611,244.911-244.911,244.911
	c-48.77,0-94.073-14.125-132.183-38.642c6.929,0.799,13.591,1.065,20.787,1.065c40.241,0,77.284-13.591,106.866-36.776
	c-37.843-0.8-69.556-25.583-80.483-59.695c5.331,0.799,10.66,1.332,16.257,1.332c7.728,0,15.457-1.066,22.652-2.931
	c-39.442-7.996-69.024-42.64-69.024-84.48v-1.065c11.459,6.396,24.785,10.394,38.908,10.926
	c-23.186-15.457-38.375-41.84-38.375-71.688c0-15.99,4.263-30.647,11.726-43.439c42.374,52.233,106.066,86.345,177.487,90.076
	c-1.332-6.396-2.132-13.058-2.132-19.72c0-47.437,38.376-86.079,86.078-86.079c24.784,0,47.17,10.393,62.894,27.183
	c19.454-3.731,38.108-10.927,54.632-20.787c-6.396,19.988-19.987,36.777-37.843,47.436c17.323-1.864,34.112-6.663,49.568-13.324
	C414.274,103.005,399.616,118.195,382.827,130.455L382.827,130.455z"/>
</svg>
