<?xml version="1.0" encoding="utf-8"?>
<!-- Generator: Adobe Illustrator 16.0.0, SVG Export Plug-In . SVG Version: 6.00 Build 0)  -->
<!DOCTYPE svg PUBLIC "-//W3C//DTD SVG 1.1//EN" "http://www.w3.org/Graphics/SVG/1.1/DTD/svg11.dtd">
<svg version="1.1" id="Layer_1" xmlns="http://www.w3.org/2000/svg" xmlns:xlink="http://www.w3.org/1999/xlink" x="0px" y="0px"
	 width="432px" height="432px" viewBox="0 0 432 432" enable-background="new 0 0 432 432" xml:space="preserve">
<g>
	<path fill-rule="evenodd" clip-rule="evenodd" fill="#8EC63F" d="M48.063,301.307c0.46-2.91,1.038-8.285,2.248-13.516
		c0.637-2.752-0.078-4.01-2.333-5.359c-7.553-4.518-14.217-10.143-19.894-16.891c-12.243-14.549-18.293-31.287-18.159-50.363
		c0.122-17.134,5.476-32.395,15.782-45.926c6.064-7.96,13.462-14.579,22.135-19.61c2.613-1.516,3.018-3.058,2.356-5.88
		c-4.219-17.989-2.932-35.803,5.056-52.338c9.479-19.624,24.75-33.435,46.083-39.783c14.614-4.348,29.337-5.018,44.145-1.17
		c2.141,0.556,2.797-0.57,3.637-1.941c7.695-12.561,17.776-22.623,30.779-29.72c11.661-6.365,24.125-9.168,37.342-8.895
		c28.36,0.586,49.504,13.85,64.73,37.198c1.914,2.937,3.491,3.604,6.97,2.878c36.251-7.561,70.356,6.608,87.549,40.933
		c7.034,14.041,8.869,29.415,6.896,45.09c-0.379,3.007-0.872,6.034-1.707,8.938c-0.579,2.019-0.063,3.004,1.628,4.033
		c7.854,4.77,14.897,10.491,20.822,17.595c9.207,11.039,15.427,23.461,17.19,37.781c4.036,32.788-8.115,58.298-35.237,76.847
		c-4.881,3.338-4.651,3.184-3.687,8.889c4.942,29.188-1.598,54.684-24.312,74.984c-17.857,15.963-38.953,20.592-62.123,18.203
		c-3.008-0.311-6.031-0.867-8.933-1.707c-2.054-0.594-3.012,0.033-4.018,1.689c-4.774,7.854-10.499,14.893-17.604,20.813
		c-11.043,9.199-23.485,15.266-37.786,17.197c-21.422,2.893-40.991-1.729-58.265-14.939c-8.112-6.205-14.767-13.805-19.967-22.607
		c-1.237-2.096-2.436-2.621-4.933-2.027c-18.059,4.285-35.76,2.758-52.688-4.736c-11.117-4.92-20.149-12.828-27.755-22.309
		C52.074,339.773,47.813,322.49,48.063,301.307z M190.276,240.527c-1.15-1.373-1.786-2.258-2.547-3.02
		c-11.1-11.125-22.195-22.25-33.345-33.321c-1.589-1.58-3.344-3.047-5.208-4.288c-9.647-6.421-22.804-2.737-27.721,7.686
		c-3.85,8.163-2.129,16.595,4.898,23.632c16.097,16.123,32.213,32.229,48.329,48.334c9.748,9.738,21.36,9.723,31.126-0.039
		c14.726-14.717,29.444-29.441,44.166-44.162c18.68-18.68,37.391-37.329,56.021-56.058c5.736-5.768,8.293-12.687,5.729-20.708
		c-2.472-7.733-8.112-12.138-16.067-13.292c-7.109-1.032-12.822,2.127-17.667,6.96c-28.361,28.302-56.68,56.647-85,84.993
		C192.161,238.072,191.484,239.053,190.276,240.527z"/>
	<path fill-rule="evenodd" clip-rule="evenodd" fill="#FFFFFF" d="M190.276,240.527c1.208-1.475,1.885-2.455,2.713-3.283
		c28.32-28.345,56.639-56.69,85-84.993c4.845-4.833,10.558-7.992,17.667-6.96c7.955,1.154,13.596,5.56,16.067,13.292
		c2.563,8.021,0.007,14.939-5.729,20.708c-18.63,18.729-37.341,37.378-56.021,56.058c-14.722,14.721-29.44,29.445-44.166,44.162
		c-9.766,9.762-21.378,9.777-31.126,0.039c-16.116-16.105-32.231-32.211-48.329-48.334c-7.027-7.037-8.749-15.469-4.898-23.632
		c4.917-10.422,18.074-14.106,27.721-7.686c1.865,1.241,3.62,2.708,5.208,4.288c11.15,11.071,22.246,22.196,33.345,33.321
		C188.49,238.27,189.126,239.154,190.276,240.527z"/>
</g>
</svg>
