<?xml version="1.0" encoding="utf-8"?>
<!-- Generator: Adobe Illustrator 16.0.0, SVG Export Plug-In . SVG Version: 6.00 Build 0)  -->
<!DOCTYPE svg PUBLIC "-//W3C//DTD SVG 1.1//EN" "http://www.w3.org/Graphics/SVG/1.1/DTD/svg11.dtd">
<svg version="1.1" id="Layer_1" xmlns="http://www.w3.org/2000/svg" xmlns:xlink="http://www.w3.org/1999/xlink" x="0px" y="0px"
	 width="432px" height="432px" viewBox="0 0 432 432" enable-background="new 0 0 432 432" xml:space="preserve">
<g>
	<path fill-rule="evenodd" clip-rule="evenodd" fill="#6C6C6C" d="M206.439,371.321c-20.8,0.012-37.234-16.214-37.194-36.914
		c0.033-17.598,13.543-37.311,37.073-37.102c20.907,0.186,37.085,16.131,37.126,36.978
		C243.486,355.108,227.301,371.309,206.439,371.321z"/>
	<path fill-rule="evenodd" clip-rule="evenodd" fill="#6C6C6C" d="M243.321,84.583c-0.034,20.802-16.393,37.019-37.186,36.861
		c-20.875-0.158-36.809-16.3-36.791-37.274c0.018-20.668,16.586-37.122,37.207-36.95C227.288,47.395,243.354,63.719,243.321,84.583z
		"/>
	<path fill-rule="evenodd" clip-rule="evenodd" fill="#6C6C6C" d="M169.345,209.31c0.001-20.745,16.4-37.153,37.068-37.088
		c20.703,0.064,36.924,16.425,36.908,37.224c-0.017,20.867-16.219,37.048-37.048,36.999
		C185.426,246.396,169.345,230.225,169.345,209.31z"/>
</g>
</svg>
