<?xml version="1.0" encoding="utf-8"?>
<!-- Generator: Adobe Illustrator 16.0.0, SVG Export Plug-In . SVG Version: 6.00 Build 0)  -->
<!DOCTYPE svg PUBLIC "-//W3C//DTD SVG 1.1//EN" "http://www.w3.org/Graphics/SVG/1.1/DTD/svg11.dtd">
<svg version="1.1" id="Layer_1" xmlns="http://www.w3.org/2000/svg" xmlns:xlink="http://www.w3.org/1999/xlink" x="0px" y="0px"
	 width="432px" height="432px" viewBox="0 0 432 432" enable-background="new 0 0 432 432" xml:space="preserve">
<rect y="1" fill="#FFFFFF" width="432" height="216"/>
<g>
	<path fill-rule="evenodd" clip-rule="evenodd" fill="#1334CB" d="M403.762,168.082c-2.404,0-4.352,0-6.299,0
		c-6.402-0.001-12.806-0.052-19.207,0.032c-1.659,0.022-2.279-0.593-2.573-2.165c-0.827-4.43-1.844-8.826-2.708-13.25
		c-0.343-1.75-1.063-2.526-3.035-2.51c-11.494,0.098-22.989,0.089-34.484,0.007c-1.877-0.014-2.706,0.665-3.258,2.385
		c-1.467,4.566-3.113,9.075-4.655,13.618c-0.372,1.1-0.765,1.912-2.207,1.902c-9.53-0.058-19.062-0.037-28.592-0.05
		c-0.209,0-0.417-0.092-0.982-0.226c0.889-2.243,1.722-4.434,2.62-6.598c9.284-22.356,18.568-44.713,27.876-67.06
		c4.835-11.609,9.68-23.216,14.592-34.794c2.569-6.053,7.115-9.079,13.836-8.94c7.417,0.152,14.842,0.091,22.262-0.005
		c1.819-0.023,2.492,0.58,2.856,2.354c4.49,21.861,9.064,43.703,13.614,65.553c2.86,13.734,5.719,27.471,8.576,41.208
		C402.553,162.233,403.107,164.924,403.762,168.082z M358.303,82.666c-0.222-0.017-0.446-0.037-0.67-0.053
		c-0.719,1.918-1.457,3.831-2.15,5.759c-4.229,11.75-8.445,23.504-12.671,35.254c-1.06,2.947-0.91,3.173,2.26,3.176
		c6.757,0.005,13.516-0.029,20.271,0.019c1.767,0.013,2.492-0.379,2.05-2.395c-2.6-11.84-5.078-23.705-7.615-35.558
		C359.331,86.791,358.796,84.732,358.303,82.666z"/>
	<path fill-rule="evenodd" clip-rule="evenodd" fill="#1334CB" d="M107.776,130.06c0.409-0.887,0.861-1.756,1.218-2.663
		c8.947-22.658,17.885-45.32,26.819-67.982c0.933-2.367,1.733-4.793,2.8-7.098c0.354-0.764,1.345-1.749,2.055-1.756
		c9.604-0.106,19.21-0.06,28.816-0.041c0.201,0,0.401,0.135,0.95,0.332c-1.23,3.026-2.423,6.026-3.665,9.005
		c-8.532,20.474-17.067,40.946-25.617,61.411c-6.28,15.03-12.604,30.042-18.847,45.086c-0.535,1.29-1.201,1.755-2.566,1.748
		c-9.243-0.046-18.486-0.069-27.727,0.018c-1.7,0.016-2.282-0.725-2.648-2.164c-1.988-7.824-4.015-15.638-6.039-23.452
		c-3.956-15.271-7.922-30.54-11.876-45.811c-1.841-7.112-3.954-14.167-5.418-21.355c-1.563-7.674-6.215-12.112-13.33-14.367
		C45.158,58.583,37.563,56.358,30.01,54c-0.459-0.143-1.133-0.908-1.053-1.219c0.203-0.8,0.655-1.627,1.245-2.202
		c0.308-0.3,1.114-0.11,1.696-0.11c15.719-0.003,31.438-0.016,47.158,0.003c8.844,0.012,13.548,3.797,15.214,12.449
		c3.728,19.35,7.361,38.719,11.034,58.081c0.447,2.355,0.882,4.713,1.352,7.065c0.132,0.661,0.372,1.299,0.563,1.947
		C107.404,130.031,107.59,130.045,107.776,130.06z"/>
	<path fill-rule="evenodd" clip-rule="evenodd" fill="#1334CB" d="M215.716,139.144c6.146,1.922,12.002,4.1,18.036,5.546
		c6.533,1.568,13.241,1.982,19.896,0.343c3.752-0.924,7.151-2.515,9.559-5.688c2.75-3.625,2.763-7.939-0.474-11.113
		c-2.46-2.413-5.371-4.44-8.311-6.27c-6.108-3.8-12.494-7.158-18.524-11.07c-4.752-3.082-8.613-7.217-10.816-12.56
		c-3.773-9.155-2.711-18.168,1.638-26.771c5.404-10.689,14.792-16.64,25.854-19.986c15.593-4.717,31.178-3.751,46.604,1.098
		c2.882,0.907,2.821,0.964,2.174,3.927c-1.334,6.106-2.618,12.226-3.936,18.335c-0.21,0.971-0.495,1.924-0.676,2.612
		c-5.031-1.388-9.799-2.938-14.675-3.989c-5.569-1.198-11.233-1.557-16.894-0.293c-3.251,0.727-6.277,1.883-8.681,4.281
		c-3.287,3.279-3.628,7.877-0.077,10.774c3.96,3.231,8.502,5.762,12.852,8.498c4.733,2.975,9.758,5.534,14.272,8.803
		c12.048,8.726,15.324,20.975,11.336,34.979c-3.475,12.206-12.037,19.822-23.398,24.492c-14.778,6.075-30.077,6.056-45.472,3.02
		c-4.759-0.939-9.377-2.58-14.061-3.894c-1.165-0.328-1.584-0.893-1.286-2.229c1.601-7.164,3.084-14.355,4.625-21.533
		C215.413,139.85,215.674,139.269,215.716,139.144z"/>
	<path fill-rule="evenodd" clip-rule="evenodd" fill="#1334CB" d="M213.896,50.621c-1.188,5.748-2.287,11.154-3.427,16.551
		c-2.825,13.377-5.674,26.75-8.504,40.126c-2.376,11.24-4.732,22.483-7.108,33.722c-1.776,8.397-3.598,16.786-5.325,25.193
		c-0.262,1.276-0.662,1.895-2.074,1.886c-8.879-0.047-17.759-0.024-26.639-0.033c-0.351,0-0.702-0.084-1.43-0.178
		c0.483-2.573,0.897-5.042,1.416-7.488c4.263-20.135,8.546-40.264,12.822-60.397c3.278-15.436,6.561-30.871,9.825-46.31
		c0.679-3.213,0.645-3.225,3.894-3.226c7.861-0.001,15.721-0.004,23.582,0.005C211.783,50.475,212.638,50.556,213.896,50.621z"/>
	<path fill-rule="evenodd" clip-rule="evenodd" fill="#FFFFFF" d="M358.303,82.666c0.493,2.067,1.028,4.125,1.475,6.202
		c2.537,11.853,5.016,23.718,7.615,35.558c0.442,2.015-0.283,2.407-2.05,2.395c-6.756-0.048-13.515-0.014-20.271-0.019
		c-3.17-0.003-3.319-0.229-2.26-3.176c4.226-11.75,8.442-23.504,12.671-35.254c0.693-1.928,1.432-3.841,2.15-5.759
		C357.856,82.629,358.081,82.648,358.303,82.666z"/>
</g>
</svg>
